<?xml version="1.0" encoding="UTF-8"?>
<svg width="1338px" height="236px" viewBox="0 0 1338 236" version="1.1" xmlns="http://www.w3.org/2000/svg" xmlns:xlink="http://www.w3.org/1999/xlink">
    <!-- Generator: Sketch 55.2 (78181) - https://sketchapp.com -->
    <title>Group 5</title>
    <desc>Created with Sketch.</desc>
    <g id="Page-1" stroke="none" stroke-width="1" fill="none" fill-rule="evenodd">
        <g id="Group-5">
            <path d="M529.1967,174.0927 L576.5307,174.0927 L513.3207,0.9267 L459.5187,0.9267 L396.8967,174.0927 L443.0547,174.0927 L453.9327,141.7527 L517.7307,141.7527 L529.1967,174.0927 Z M470.9847,91.4787 C480.6867,63.2547 485.0967,41.2047 485.0967,41.2047 L486.2727,41.2047 C486.2727,41.2047 489.8007,62.9607 500.0907,91.7727 L504.7947,105.0027 L466.2807,105.0027 L470.9847,91.4787 Z M652.0887,124.1127 C648.8547,139.4007 641.7987,144.1047 632.3907,144.1047 C616.2207,144.1047 607.1067,130.5807 607.1067,105.8847 C607.1067,82.9527 615.9267,69.1347 632.0967,69.1347 C644.7387,69.1347 650.6187,77.3667 652.3827,91.1847 L688.8387,80.3067 C686.7807,53.2587 665.3187,35.0307 632.0967,35.0307 C591.5247,35.0307 564.7707,61.4907 564.7707,106.7667 C564.7707,151.7487 591.5247,177.6207 632.0967,177.6207 C661.7907,177.6207 685.6047,164.0967 690.8967,136.7547 L652.0887,124.1127 Z M795.8547,131.7567 C787.9167,137.3427 780.2727,140.5767 771.7467,140.5767 C761.1627,140.5767 755.5767,136.1667 755.5767,122.0547 L755.5767,71.7807 L796.1487,71.7807 L796.1487,38.2647 L755.8707,38.2647 L755.8707,4.4547 L712.3587,9.4527 L712.3587,38.2647 L692.3667,38.2647 L692.3667,71.7807 L712.0647,71.7807 L712.0647,132.0507 C712.0647,164.9787 730.8807,177.6207 758.5167,177.6207 C776.1567,177.6207 790.8567,174.6807 803.2047,168.5067 L795.8547,131.7567 Z M895.8117,174.0927 L933.4437,174.0927 L933.4437,38.2647 L889.9317,38.2647 L889.9317,108.8247 C889.9317,134.6967 880.8177,144.6927 867.8817,144.6927 C855.5337,144.6927 851.1237,135.5787 851.1237,120.8787 L851.1237,38.2647 L807.6117,38.2647 L807.6117,134.1087 C807.6117,165.2727 824.3697,177.6207 848.4777,177.6207 C874.3497,177.6207 886.4037,166.7427 890.5197,148.5147 L895.8117,174.0927 Z M1016.6427,130.8747 C1016.6427,143.2227 1006.0587,147.0447 997.2387,147.0447 C989.3007,147.0447 984.3027,142.3407 984.3027,135.5787 C984.3027,125.2887 991.9467,118.2327 1016.6427,119.1147 L1016.6427,130.8747 Z M1059.8607,80.8947 C1059.8607,50.9067 1041.3387,35.0307 1004.8827,35.0307 C971.6607,35.0307 947.5527,49.7307 945.4947,78.5427 L989.3007,86.7747 C989.8887,75.0147 994.2987,67.6647 1003.7067,67.6647 C1013.4087,67.6647 1016.6427,74.7207 1016.6427,85.0107 L1016.6427,96.4767 C965.4867,93.5367 940.7907,109.7067 940.7907,139.9887 C940.7907,163.5087 956.3727,177.6207 980.4807,177.6207 C999.5907,177.6207 1013.7027,172.3287 1019.8767,155.5707 C1024.8747,170.2707 1035.7527,176.7387 1053.6867,176.7387 C1063.9767,176.7387 1072.2087,175.2687 1078.3827,171.1527 L1078.3827,139.9887 C1075.7367,141.1647 1072.7967,142.3407 1069.5627,142.3407 C1063.3887,142.3407 1059.8607,138.8127 1059.8607,129.9927 L1059.8607,80.8947 Z M1184.8107,35.3247 C1147.1787,32.9727 1134.8307,52.3767 1128.9507,75.8967 L1123.6587,38.2647 L1085.7327,38.2647 L1085.7327,174.0927 L1129.2447,174.0927 L1129.2447,114.1167 C1129.2447,85.8927 1148.9427,80.6007 1163.0547,80.6007 C1169.8167,80.6007 1173.9327,81.4827 1179.5187,83.2467 L1184.8107,35.3247 Z M1238.3187,38.2647 L1190.6907,38.2647 L1240.9647,181.7367 C1236.2607,193.7907 1228.6167,198.2007 1216.8567,198.2007 C1210.3887,198.2007 1203.9207,196.4367 1198.9227,193.2027 L1192.1607,232.0107 C1199.8047,233.7747 1209.5067,235.2447 1217.7387,235.2447 C1247.1387,235.2447 1266.2487,229.0707 1282.1247,186.4407 L1337.1027,38.2647 L1291.2387,38.2647 L1273.5987,95.8887 C1265.6607,122.0547 1264.1907,139.9887 1264.1907,139.9887 L1263.0147,139.9887 C1263.0147,139.9887 1261.5447,122.3487 1254.1947,95.8887 L1238.3187,38.2647 Z" id="Fill-1" fill="#F49D21"></path>
            <path d="M54.1917,222.307906 L54.1917,194.407906 L44.6592,194.407906 L44.6592,190.966906 L67.8627,190.966906 L67.8627,194.407906 L58.2837,194.407906 L58.2837,222.307906 L54.1917,222.307906 Z M70.629465,222.307906 L70.629465,189.292906 L74.721465,189.292906 L74.721465,203.335906 L74.814465,203.335906 C75.465465,202.173406 76.488465,201.150406 77.743965,200.452906 C78.952965,199.755406 80.394465,199.290406 81.928965,199.290406 C84.951465,199.290406 89.787465,201.150406 89.787465,208.915906 L89.787465,222.307906 L85.695465,222.307906 L85.695465,209.380906 C85.695465,205.753906 84.346965,202.684906 80.487465,202.684906 C77.836965,202.684906 75.744465,204.544906 75.000465,206.776906 C74.767965,207.334906 74.721465,207.939406 74.721465,208.729906 L74.721465,222.307906 L70.629465,222.307906 Z M114.585465,211.798906 L98.775465,211.798906 C98.868465,217.332406 102.402465,219.610906 106.494465,219.610906 C109.423965,219.610906 111.190965,219.099406 112.725465,218.448406 L113.422965,221.377906 C111.981465,222.028906 109.516965,222.772906 105.936465,222.772906 C99.007965,222.772906 94.869465,218.215906 94.869465,211.426906 C94.869465,204.637906 98.868465,199.290406 105.424965,199.290406 C112.771965,199.290406 114.724965,205.753906 114.724965,209.892406 C114.724965,210.729406 114.631965,211.380406 114.585465,211.798906 Z M98.821965,208.869406 L110.772465,208.869406 C110.818965,206.265406 109.702965,202.219906 105.099465,202.219906 C100.960965,202.219906 99.147465,206.032906 98.821965,208.869406 Z M129.771465,222.307906 L129.771465,205.893406 C129.771465,203.568406 129.724965,201.661906 129.585465,199.801906 L133.165965,199.801906 L133.351965,203.428906 L133.491465,203.428906 C134.746965,201.289906 136.839465,199.290406 140.559465,199.290406 C143.628465,199.290406 145.953465,201.150406 146.929965,203.800906 L147.022965,203.800906 C147.720465,202.545406 148.603965,201.568906 149.533965,200.871406 C150.882465,199.848406 152.370465,199.290406 154.509465,199.290406 C157.485465,199.290406 161.902965,201.243406 161.902965,209.055406 L161.902965,222.307906 L157.903965,222.307906 L157.903965,209.566906 C157.903965,205.242406 156.322965,202.638406 153.021465,202.638406 C150.696465,202.638406 148.882965,204.358906 148.185465,206.358406 C147.999465,206.916406 147.859965,207.660406 147.859965,208.404406 L147.859965,222.307906 L143.860965,222.307906 L143.860965,208.822906 C143.860965,205.242406 142.279965,202.638406 139.164465,202.638406 C136.606965,202.638406 134.746965,204.684406 134.095965,206.730406 C133.863465,207.334906 133.770465,208.032406 133.770465,208.729906 L133.770465,222.307906 L129.771465,222.307906 Z M184.794465,222.307906 L181.074465,222.307906 L180.748965,219.471406 L180.609465,219.471406 C179.353965,221.238406 176.935965,222.819406 173.727465,222.819406 C169.170465,222.819406 166.845465,219.610906 166.845465,216.355906 C166.845465,210.915406 171.681465,207.939406 180.376965,207.985906 L180.376965,207.520906 C180.376965,205.660906 179.865465,202.312906 175.261965,202.312906 C173.169465,202.312906 170.983965,202.963906 169.402965,203.986906 L168.472965,201.289906 C170.332965,200.080906 173.029965,199.290406 175.866465,199.290406 C182.748465,199.290406 184.422465,203.986906 184.422465,208.497406 L184.422465,216.913906 C184.422465,218.866906 184.515465,220.773406 184.794465,222.307906 Z M180.469965,214.728406 L180.469965,210.822406 C176.005965,210.729406 170.937465,211.519906 170.937465,215.890906 C170.937465,218.541406 172.704465,219.796906 174.796965,219.796906 C177.726465,219.796906 179.586465,217.936906 180.237465,216.030406 C180.376965,215.611906 180.469965,215.146906 180.469965,214.728406 Z M206.895465,199.801906 L210.475965,199.801906 C210.382965,201.429406 210.289965,203.242906 210.289965,205.986406 L210.289965,219.052906 C210.289965,224.214406 209.266965,227.376406 207.081465,229.329406 C204.895965,231.375406 201.733965,232.026406 198.897465,232.026406 C196.200465,232.026406 193.224465,231.375406 191.410965,230.166406 L192.433965,227.050906 C193.921965,227.980906 196.246965,228.817906 199.036965,228.817906 C203.221965,228.817906 206.290965,226.632406 206.290965,220.959406 L206.290965,218.448406 L206.197965,218.448406 C204.942465,220.540906 202.524465,222.214906 199.036965,222.214906 C193.456965,222.214906 189.457965,217.471906 189.457965,211.240906 C189.457965,203.614906 194.433465,199.290406 199.594965,199.290406 C203.500965,199.290406 205.639965,201.336406 206.616465,203.196406 L206.709465,203.196406 L206.895465,199.801906 Z M206.244465,212.728906 L206.244465,208.683406 C206.244465,207.985906 206.197965,207.381406 206.011965,206.823406 C205.267965,204.451906 203.268465,202.498906 200.292465,202.498906 C196.386465,202.498906 193.596465,205.800406 193.596465,211.008406 C193.596465,215.425906 195.828465,219.099406 200.245965,219.099406 C202.756965,219.099406 205.035465,217.518406 205.918965,214.914406 C206.151465,214.216906 206.244465,213.426406 206.244465,212.728906 Z M233.320965,222.307906 L229.600965,222.307906 L229.275465,219.471406 L229.135965,219.471406 C227.880465,221.238406 225.462465,222.819406 222.253965,222.819406 C217.696965,222.819406 215.371965,219.610906 215.371965,216.355906 C215.371965,210.915406 220.207965,207.939406 228.903465,207.985906 L228.903465,207.520906 C228.903465,205.660906 228.391965,202.312906 223.788465,202.312906 C221.695965,202.312906 219.510465,202.963906 217.929465,203.986906 L216.999465,201.289906 C218.859465,200.080906 221.556465,199.290406 224.392965,199.290406 C231.274965,199.290406 232.948965,203.986906 232.948965,208.497406 L232.948965,216.913906 C232.948965,218.866906 233.041965,220.773406 233.320965,222.307906 Z M228.996465,214.728406 L228.996465,210.822406 C224.532465,210.729406 219.463965,211.519906 219.463965,215.890906 C219.463965,218.541406 221.230965,219.796906 223.323465,219.796906 C226.252965,219.796906 228.112965,217.936906 228.763965,216.030406 C228.903465,215.611906 228.996465,215.146906 228.996465,214.728406 Z M237.054465,222.307906 L237.054465,219.936406 L247.237965,206.683906 C248.214465,205.474906 249.144465,204.405406 250.167465,203.196406 L250.167465,203.103406 L237.984465,203.103406 L237.984465,199.801906 L255.142965,199.801906 L255.096465,202.359406 L245.052465,215.425906 C244.122465,216.681406 243.192465,217.797406 242.169465,218.959906 L242.169465,219.052906 L255.328965,219.052906 L255.328965,222.307906 L237.054465,222.307906 Z M263.665965,222.307906 L259.573965,222.307906 L259.573965,199.801906 L263.665965,199.801906 L263.665965,222.307906 Z M261.619965,190.920406 C263.154465,190.920406 264.130965,192.036406 264.130965,193.477906 C264.177465,194.872906 263.154465,195.988906 261.526965,195.988906 C260.085465,195.988906 259.062465,194.872906 259.062465,193.477906 C259.062465,192.036406 260.131965,190.920406 261.619965,190.920406 Z M270.514965,222.307906 L270.514965,205.893406 C270.514965,203.568406 270.468465,201.661906 270.328965,199.801906 L273.955965,199.801906 L274.188465,203.521906 L274.281465,203.521906 C275.397465,201.382906 278.001465,199.290406 281.721465,199.290406 C284.836965,199.290406 289.672965,201.150406 289.672965,208.869406 L289.672965,222.307906 L285.580965,222.307906 L285.580965,209.334406 C285.580965,205.707406 284.232465,202.684906 280.372965,202.684906 C277.675965,202.684906 275.583465,204.591406 274.885965,206.869906 C274.699965,207.381406 274.606965,208.078906 274.606965,208.776406 L274.606965,222.307906 L270.514965,222.307906 Z M314.470965,211.798906 L298.660965,211.798906 C298.753965,217.332406 302.287965,219.610906 306.379965,219.610906 C309.309465,219.610906 311.076465,219.099406 312.610965,218.448406 L313.308465,221.377906 C311.866965,222.028906 309.402465,222.772906 305.821965,222.772906 C298.893465,222.772906 294.754965,218.215906 294.754965,211.426906 C294.754965,204.637906 298.753965,199.290406 305.310465,199.290406 C312.657465,199.290406 314.610465,205.753906 314.610465,209.892406 C314.610465,210.729406 314.517465,211.380406 314.470965,211.798906 Z M298.707465,208.869406 L310.657965,208.869406 C310.704465,206.265406 309.588465,202.219906 304.984965,202.219906 C300.846465,202.219906 299.032965,206.032906 298.707465,208.869406 Z M339.189465,199.290406 C345.652965,199.290406 350.023965,203.986906 350.023965,210.868906 C350.023965,219.192406 344.257965,222.819406 338.817465,222.819406 C332.725965,222.819406 328.029465,218.355406 328.029465,211.240906 C328.029465,203.707906 332.958465,199.290406 339.189465,199.290406 Z M339.096465,202.359406 C334.260465,202.359406 332.167965,206.823406 332.167965,211.101406 C332.167965,216.030406 335.004465,219.750406 339.003465,219.750406 C342.909465,219.750406 345.838965,216.076906 345.838965,211.008406 C345.838965,207.195406 343.932465,202.359406 339.096465,202.359406 Z M359.709465,222.307906 L355.663965,222.307906 L355.663965,202.917406 L352.501965,202.917406 L352.501965,199.801906 L355.663965,199.801906 L355.663965,198.732406 C355.663965,195.570406 356.361465,192.687406 358.267965,190.873906 C359.802465,189.385906 361.848465,188.781406 363.754965,188.781406 C365.196465,188.781406 366.451965,189.106906 367.242465,189.432406 L366.684465,192.594406 C366.079965,192.315406 365.242965,192.082906 364.080465,192.082906 C360.592965,192.082906 359.709465,195.151906 359.709465,198.592906 L359.709465,199.801906 L365.149965,199.801906 L365.149965,202.917406 L359.709465,202.917406 L359.709465,222.307906 Z M379.731465,194.407906 L383.730465,193.338406 L383.730465,199.801906 L389.589465,199.801906 L389.589465,202.917406 L383.730465,202.917406 L383.730465,215.053906 C383.730465,217.843906 384.520965,219.424906 386.799465,219.424906 C387.868965,219.424906 388.659465,219.285406 389.170965,219.145906 L389.356965,222.214906 C388.566465,222.540406 387.310965,222.772906 385.729965,222.772906 C383.823465,222.772906 382.288965,222.168406 381.312465,221.052406 C380.149965,219.843406 379.731465,217.843906 379.731465,215.193406 L379.731465,202.917406 L376.243965,202.917406 L376.243965,199.801906 L379.731465,199.801906 L379.731465,194.407906 Z M394.252965,222.307906 L394.252965,189.292906 L398.344965,189.292906 L398.344965,203.335906 L398.437965,203.335906 C399.088965,202.173406 400.111965,201.150406 401.367465,200.452906 C402.576465,199.755406 404.017965,199.290406 405.552465,199.290406 C408.574965,199.290406 413.410965,201.150406 413.410965,208.915906 L413.410965,222.307906 L409.318965,222.307906 L409.318965,209.380906 C409.318965,205.753906 407.970465,202.684906 404.110965,202.684906 C401.460465,202.684906 399.367965,204.544906 398.623965,206.776906 C398.391465,207.334906 398.344965,207.939406 398.344965,208.729906 L398.344965,222.307906 L394.252965,222.307906 Z M438.208965,211.798906 L422.398965,211.798906 C422.491965,217.332406 426.025965,219.610906 430.117965,219.610906 C433.047465,219.610906 434.814465,219.099406 436.348965,218.448406 L437.046465,221.377906 C435.604965,222.028906 433.140465,222.772906 429.559965,222.772906 C422.631465,222.772906 418.492965,218.215906 418.492965,211.426906 C418.492965,204.637906 422.491965,199.290406 429.048465,199.290406 C436.395465,199.290406 438.348465,205.753906 438.348465,209.892406 C438.348465,210.729406 438.255465,211.380406 438.208965,211.798906 Z M422.445465,208.869406 L434.395965,208.869406 C434.442465,206.265406 433.326465,202.219906 428.722965,202.219906 C424.584465,202.219906 422.770965,206.032906 422.445465,208.869406 Z M453.534465,190.966906 L457.579965,190.966906 L457.579965,222.307906 L453.534465,222.307906 L453.534465,190.966906 Z M465.484515,222.307906 L465.484515,205.893406 C465.484515,203.568406 465.438015,201.661906 465.298515,199.801906 L468.925515,199.801906 L469.158015,203.521906 L469.251015,203.521906 C470.367015,201.382906 472.971015,199.290406 476.691015,199.290406 C479.806515,199.290406 484.642515,201.150406 484.642515,208.869406 L484.642515,222.307906 L480.550515,222.307906 L480.550515,209.334406 C480.550515,205.707406 479.202015,202.684906 475.342515,202.684906 C472.645515,202.684906 470.553015,204.591406 469.855515,206.869906 C469.669515,207.381406 469.576515,208.078906 469.576515,208.776406 L469.576515,222.307906 L465.484515,222.307906 Z M489.771015,221.238406 L490.794015,218.122906 C492.003015,218.913406 494.142015,219.750406 496.188015,219.750406 C499.164015,219.750406 500.559015,218.262406 500.559015,216.402406 C500.559015,214.449406 499.396515,213.379906 496.374015,212.263906 C492.328515,210.822406 490.422015,208.590406 490.422015,205.893406 C490.422015,202.266406 493.351515,199.290406 498.187515,199.290406 C500.466015,199.290406 502.465515,199.941406 503.721015,200.685406 L502.698015,203.661406 C501.814515,203.103406 500.187015,202.359406 498.094515,202.359406 C495.676515,202.359406 494.328015,203.754406 494.328015,205.428406 C494.328015,207.288406 495.676515,208.125406 498.606015,209.241406 C502.512015,210.729406 504.511515,212.682406 504.511515,216.030406 C504.511515,219.982906 501.442515,222.772906 496.095015,222.772906 C493.630515,222.772906 491.352015,222.168406 489.771015,221.238406 Z M510.756015,194.407906 L514.755015,193.338406 L514.755015,199.801906 L520.614015,199.801906 L520.614015,202.917406 L514.755015,202.917406 L514.755015,215.053906 C514.755015,217.843906 515.545515,219.424906 517.824015,219.424906 C518.893515,219.424906 519.684015,219.285406 520.195515,219.145906 L520.381515,222.214906 C519.591015,222.540406 518.335515,222.772906 516.754515,222.772906 C514.848015,222.772906 513.313515,222.168406 512.337015,221.052406 C511.174515,219.843406 510.756015,217.843906 510.756015,215.193406 L510.756015,202.917406 L507.268515,202.917406 L507.268515,199.801906 L510.756015,199.801906 L510.756015,194.407906 Z M529.369515,222.307906 L525.277515,222.307906 L525.277515,199.801906 L529.369515,199.801906 L529.369515,222.307906 Z M527.323515,190.920406 C528.858015,190.920406 529.834515,192.036406 529.834515,193.477906 C529.881015,194.872906 528.858015,195.988906 527.230515,195.988906 C525.789015,195.988906 524.766015,194.872906 524.766015,193.477906 C524.766015,192.036406 525.835515,190.920406 527.323515,190.920406 Z M537.148515,194.407906 L541.147515,193.338406 L541.147515,199.801906 L547.006515,199.801906 L547.006515,202.917406 L541.147515,202.917406 L541.147515,215.053906 C541.147515,217.843906 541.938015,219.424906 544.216515,219.424906 C545.286015,219.424906 546.076515,219.285406 546.588015,219.145906 L546.774015,222.214906 C545.983515,222.540406 544.728015,222.772906 543.147015,222.772906 C541.240515,222.772906 539.706015,222.168406 538.729515,221.052406 C537.567015,219.843406 537.148515,217.843906 537.148515,215.193406 L537.148515,202.917406 L533.661015,202.917406 L533.661015,199.801906 L537.148515,199.801906 L537.148515,194.407906 Z M570.502515,199.801906 L570.502515,216.169906 C570.502515,218.494906 570.549015,220.540906 570.688515,222.307906 L567.061515,222.307906 L566.829015,218.634406 L566.736015,218.634406 C565.666515,220.447906 563.295015,222.819406 559.296015,222.819406 C555.762015,222.819406 551.530515,220.866406 551.530515,212.961406 L551.530515,199.801906 L555.622515,199.801906 L555.622515,212.263906 C555.622515,216.541906 556.924515,219.424906 560.644515,219.424906 C563.388015,219.424906 565.294515,217.518406 566.038515,215.704906 C566.271015,215.100406 566.410515,214.356406 566.410515,213.612406 L566.410515,199.801906 L570.502515,199.801906 Z M578.281515,194.407906 L582.280515,193.338406 L582.280515,199.801906 L588.139515,199.801906 L588.139515,202.917406 L582.280515,202.917406 L582.280515,215.053906 C582.280515,217.843906 583.071015,219.424906 585.349515,219.424906 C586.419015,219.424906 587.209515,219.285406 587.721015,219.145906 L587.907015,222.214906 C587.116515,222.540406 585.861015,222.772906 584.280015,222.772906 C582.373515,222.772906 580.839015,222.168406 579.862515,221.052406 C578.700015,219.843406 578.281515,217.843906 578.281515,215.193406 L578.281515,202.917406 L574.794015,202.917406 L574.794015,199.801906 L578.281515,199.801906 L578.281515,194.407906 Z M610.341885,211.798906 L594.531885,211.798906 C594.624885,217.332406 598.158885,219.610906 602.250885,219.610906 C605.180385,219.610906 606.947385,219.099406 608.481885,218.448406 L609.179385,221.377906 C607.737885,222.028906 605.273385,222.772906 601.692885,222.772906 C594.764385,222.772906 590.625885,218.215906 590.625885,211.426906 C590.625885,204.637906 594.624885,199.290406 601.181385,199.290406 C608.528385,199.290406 610.481385,205.753906 610.481385,209.892406 C610.481385,210.729406 610.388385,211.380406 610.341885,211.798906 Z M594.578385,208.869406 L606.528885,208.869406 C606.575385,206.265406 605.459385,202.219906 600.855885,202.219906 C596.717385,202.219906 594.903885,206.032906 594.578385,208.869406 Z M641.709885,222.307906 L637.989885,222.307906 L637.664385,219.471406 L637.524885,219.471406 C636.269385,221.238406 633.851385,222.819406 630.642885,222.819406 C626.085885,222.819406 623.760885,219.610906 623.760885,216.355906 C623.760885,210.915406 628.596885,207.939406 637.292385,207.985906 L637.292385,207.520906 C637.292385,205.660906 636.780885,202.312906 632.177385,202.312906 C630.084885,202.312906 627.899385,202.963906 626.318385,203.986906 L625.388385,201.289906 C627.248385,200.080906 629.945385,199.290406 632.781885,199.290406 C639.663885,199.290406 641.337885,203.986906 641.337885,208.497406 L641.337885,216.913906 C641.337885,218.866906 641.430885,220.773406 641.709885,222.307906 Z M637.385385,214.728406 L637.385385,210.822406 C632.921385,210.729406 627.852885,211.519906 627.852885,215.890906 C627.852885,218.541406 629.619885,219.796906 631.712385,219.796906 C634.641885,219.796906 636.501885,217.936906 637.152885,216.030406 C637.292385,215.611906 637.385385,215.146906 637.385385,214.728406 Z M648.000885,222.307906 L648.000885,205.893406 C648.000885,203.568406 647.954385,201.661906 647.814885,199.801906 L651.441885,199.801906 L651.674385,203.521906 L651.767385,203.521906 C652.883385,201.382906 655.487385,199.290406 659.207385,199.290406 C662.322885,199.290406 667.158885,201.150406 667.158885,208.869406 L667.158885,222.307906 L663.066885,222.307906 L663.066885,209.334406 C663.066885,205.707406 661.718385,202.684906 657.858885,202.684906 C655.161885,202.684906 653.069385,204.591406 652.371885,206.869906 C652.185885,207.381406 652.092885,208.078906 652.092885,208.776406 L652.092885,222.307906 L648.000885,222.307906 Z M689.213385,189.292906 L693.305385,189.292906 L693.305385,216.495406 C693.305385,218.494906 693.351885,220.773406 693.491385,222.307906 L689.817885,222.307906 L689.631885,218.401906 L689.538885,218.401906 C688.283385,220.912906 685.539885,222.819406 681.866385,222.819406 C676.425885,222.819406 672.240885,218.215906 672.240885,211.380406 C672.194385,203.893906 676.844385,199.290406 682.331385,199.290406 C685.772385,199.290406 688.097385,200.917906 689.120385,202.731406 L689.213385,202.731406 L689.213385,189.292906 Z M689.213385,212.868406 L689.213385,208.962406 C689.213385,208.450906 689.166885,207.753406 689.027385,207.241906 C688.422885,204.637906 686.190885,202.498906 683.121885,202.498906 C678.890385,202.498906 676.379385,206.218906 676.379385,211.194406 C676.379385,215.751406 678.611385,219.517906 683.028885,219.517906 C685.772385,219.517906 688.283385,217.704406 689.027385,214.635406 C689.166885,214.077406 689.213385,213.519406 689.213385,212.868406 Z M710.211885,222.307906 L710.211885,190.966906 L727.091385,190.966906 L727.091385,194.361406 L714.257385,194.361406 L714.257385,204.777406 L726.114885,204.777406 L726.114885,208.125406 L714.257385,208.125406 L714.257385,222.307906 L710.211885,222.307906 Z M744.83766,222.307906 L741.11766,222.307906 L740.79216,219.471406 L740.65266,219.471406 C739.39716,221.238406 736.97916,222.819406 733.77066,222.819406 C729.21366,222.819406 726.88866,219.610906 726.88866,216.355906 C726.88866,210.915406 731.72466,207.939406 740.42016,207.985906 L740.42016,207.520906 C740.42016,205.660906 739.90866,202.312906 735.30516,202.312906 C733.21266,202.312906 731.02716,202.963906 729.44616,203.986906 L728.51616,201.289906 C730.37616,200.080906 733.07316,199.290406 735.90966,199.290406 C742.79166,199.290406 744.46566,203.986906 744.46566,208.497406 L744.46566,216.913906 C744.46566,218.866906 744.55866,220.773406 744.83766,222.307906 Z M740.51316,214.728406 L740.51316,210.822406 C736.04916,210.729406 730.98066,211.519906 730.98066,215.890906 C730.98066,218.541406 732.74766,219.796906 734.84016,219.796906 C737.76966,219.796906 739.62966,217.936906 740.28066,216.030406 C740.42016,215.611906 740.51316,215.146906 740.51316,214.728406 Z M766.47366,218.401906 L767.17116,221.470906 C766.10166,222.028906 763.73016,222.772906 760.70766,222.772906 C753.91866,222.772906 749.50116,218.169406 749.50116,211.287406 C749.50116,204.358906 754.24416,199.336906 761.59116,199.336906 C764.00916,199.336906 766.14816,199.941406 767.26416,200.499406 L766.33416,203.661406 C765.35766,203.103406 763.82316,202.591906 761.59116,202.591906 C756.42966,202.591906 753.63966,206.404906 753.63966,211.101406 C753.63966,216.309406 756.98766,219.517906 761.45166,219.517906 C763.77666,219.517906 765.31116,218.913406 766.47366,218.401906 Z M790.85316,199.801906 L790.85316,216.169906 C790.85316,218.494906 790.89966,220.540906 791.03916,222.307906 L787.41216,222.307906 L787.17966,218.634406 L787.08666,218.634406 C786.01716,220.447906 783.64566,222.819406 779.64666,222.819406 C776.11266,222.819406 771.88116,220.866406 771.88116,212.961406 L771.88116,199.801906 L775.97316,199.801906 L775.97316,212.263906 C775.97316,216.541906 777.27516,219.424906 780.99516,219.424906 C783.73866,219.424906 785.64516,217.518406 786.38916,215.704906 C786.62166,215.100406 786.76116,214.356406 786.76116,213.612406 L786.76116,199.801906 L790.85316,199.801906 Z M797.70216,222.307906 L797.70216,189.292906 L801.79416,189.292906 L801.79416,222.307906 L797.70216,222.307906 Z M809.66616,194.407906 L813.66516,193.338406 L813.66516,199.801906 L819.52416,199.801906 L819.52416,202.917406 L813.66516,202.917406 L813.66516,215.053906 C813.66516,217.843906 814.45566,219.424906 816.73416,219.424906 C817.80366,219.424906 818.59416,219.285406 819.10566,219.145906 L819.29166,222.214906 C818.50116,222.540406 817.24566,222.772906 815.66466,222.772906 C813.75816,222.772906 812.22366,222.168406 811.24716,221.052406 C810.08466,219.843406 809.66616,217.843906 809.66616,215.193406 L809.66616,202.917406 L806.17866,202.917406 L806.17866,199.801906 L809.66616,199.801906 L809.66616,194.407906 Z M822.036105,199.801906 L826.500105,199.801906 L831.429105,213.100906 C831.940605,214.588906 832.498605,216.355906 832.870605,217.704406 L832.963605,217.704406 C833.382105,216.355906 833.847105,214.635406 834.405105,213.007906 L838.869105,199.801906 L843.193605,199.801906 L837.055605,215.844406 C834.126105,223.563406 832.126605,227.515906 829.336605,229.933906 C827.337105,231.700906 825.337605,232.398406 824.314605,232.584406 L823.291605,229.143406 C824.314605,228.817906 825.663105,228.166906 826.872105,227.143906 C827.988105,226.260406 829.383105,224.679406 830.313105,222.586906 C830.499105,222.168406 830.638605,221.842906 830.638605,221.610406 C830.638605,221.377906 830.545605,221.052406 830.359605,220.540906 L822.036105,199.801906 Z M866.424105,199.290406 C872.887605,199.290406 877.258605,203.986906 877.258605,210.868906 C877.258605,219.192406 871.492605,222.819406 866.052105,222.819406 C859.960605,222.819406 855.264105,218.355406 855.264105,211.240906 C855.264105,203.707906 860.193105,199.290406 866.424105,199.290406 Z M866.331105,202.359406 C861.495105,202.359406 859.402605,206.823406 859.402605,211.101406 C859.402605,216.030406 862.239105,219.750406 866.238105,219.750406 C870.144105,219.750406 873.073605,216.076906 873.073605,211.008406 C873.073605,207.195406 871.167105,202.359406 866.331105,202.359406 Z M886.944105,222.307906 L882.898605,222.307906 L882.898605,202.917406 L879.736605,202.917406 L879.736605,199.801906 L882.898605,199.801906 L882.898605,198.732406 C882.898605,195.570406 883.596105,192.687406 885.502605,190.873906 C887.037105,189.385906 889.083105,188.781406 890.989605,188.781406 C892.431105,188.781406 893.686605,189.106906 894.477105,189.432406 L893.919105,192.594406 C893.314605,192.315406 892.477605,192.082906 891.315105,192.082906 C887.827605,192.082906 886.944105,195.151906 886.944105,198.592906 L886.944105,199.801906 L892.384605,199.801906 L892.384605,202.917406 L886.944105,202.917406 L886.944105,222.307906 Z M922.357605,212.449906 L911.244105,212.449906 L907.989105,222.307906 L903.804105,222.307906 L914.452605,190.966906 L919.335105,190.966906 L930.030105,222.307906 L925.705605,222.307906 L922.357605,212.449906 Z M912.081105,209.287906 L921.520605,209.287906 L918.451605,200.266906 C917.754105,198.220906 917.289105,196.360906 916.824105,194.547406 L916.731105,194.547406 C916.266105,196.407406 915.754605,198.313906 915.150105,200.220406 L912.081105,209.287906 Z M948.799845,218.401906 L949.497345,221.470906 C948.427845,222.028906 946.056345,222.772906 943.033845,222.772906 C936.244845,222.772906 931.827345,218.169406 931.827345,211.287406 C931.827345,204.358906 936.570345,199.336906 943.917345,199.336906 C946.335345,199.336906 948.474345,199.941406 949.590345,200.499406 L948.660345,203.661406 C947.683845,203.103406 946.149345,202.591906 943.917345,202.591906 C938.755845,202.591906 935.965845,206.404906 935.965845,211.101406 C935.965845,216.309406 939.313845,219.517906 943.777845,219.517906 C946.102845,219.517906 947.637345,218.913406 948.799845,218.401906 Z M956.46771,194.407906 L960.46671,193.338406 L960.46671,199.801906 L966.32571,199.801906 L966.32571,202.917406 L960.46671,202.917406 L960.46671,215.053906 C960.46671,217.843906 961.25721,219.424906 963.53571,219.424906 C964.60521,219.424906 965.39571,219.285406 965.90721,219.145906 L966.09321,222.214906 C965.30271,222.540406 964.04721,222.772906 962.46621,222.772906 C960.55971,222.772906 959.02521,222.168406 958.04871,221.052406 C956.88621,219.843406 956.46771,217.843906 956.46771,215.193406 L956.46771,202.917406 L952.98021,202.917406 L952.98021,199.801906 L956.46771,199.801906 L956.46771,194.407906 Z M989.82171,199.801906 L989.82171,216.169906 C989.82171,218.494906 989.86821,220.540906 990.00771,222.307906 L986.38071,222.307906 L986.14821,218.634406 L986.05521,218.634406 C984.98571,220.447906 982.61421,222.819406 978.61521,222.819406 C975.08121,222.819406 970.84971,220.866406 970.84971,212.961406 L970.84971,199.801906 L974.94171,199.801906 L974.94171,212.263906 C974.94171,216.541906 976.24371,219.424906 979.96371,219.424906 C982.70721,219.424906 984.61371,217.518406 985.35771,215.704906 C985.59021,215.100406 985.72971,214.356406 985.72971,213.612406 L985.72971,199.801906 L989.82171,199.801906 Z M1012.85271,222.307906 L1009.13271,222.307906 L1008.80721,219.471406 L1008.66771,219.471406 C1007.41221,221.238406 1004.99421,222.819406 1001.78571,222.819406 C997.22871,222.819406 994.90371,219.610906 994.90371,216.355906 C994.90371,210.915406 999.73971,207.939406 1008.43521,207.985906 L1008.43521,207.520906 C1008.43521,205.660906 1007.92371,202.312906 1003.32021,202.312906 C1001.22771,202.312906 999.04221,202.963906 997.46121,203.986906 L996.53121,201.289906 C998.39121,200.080906 1001.08821,199.290406 1003.92471,199.290406 C1010.80671,199.290406 1012.48071,203.986906 1012.48071,208.497406 L1012.48071,216.913906 C1012.48071,218.866906 1012.57371,220.773406 1012.85271,222.307906 Z M1008.52821,214.728406 L1008.52821,210.822406 C1004.06421,210.729406 998.99571,211.519906 998.99571,215.890906 C998.99571,218.541406 1000.76271,219.796906 1002.85521,219.796906 C1005.78471,219.796906 1007.64471,217.936906 1008.29571,216.030406 C1008.43521,215.611906 1008.52821,215.146906 1008.52821,214.728406 Z M1019.14371,222.307906 L1019.14371,206.823406 C1019.14371,204.172906 1019.09721,201.894406 1018.95771,199.801906 L1022.53821,199.801906 L1022.67771,204.219406 L1022.86371,204.219406 C1023.88671,201.196906 1026.35121,199.290406 1029.09471,199.290406 C1029.55971,199.290406 1029.88521,199.336906 1030.25721,199.429906 L1030.25721,203.289406 C1029.83871,203.196406 1029.42021,203.149906 1028.86221,203.149906 C1025.97921,203.149906 1023.93321,205.335406 1023.37521,208.404406 C1023.28221,208.962406 1023.18921,209.613406 1023.18921,210.310906 L1023.18921,222.307906 L1019.14371,222.307906 Z M1038.86763,222.307906 L1034.77563,222.307906 L1034.77563,199.801906 L1038.86763,199.801906 L1038.86763,222.307906 Z M1036.82163,190.920406 C1038.35613,190.920406 1039.33263,192.036406 1039.33263,193.477906 C1039.37913,194.872906 1038.35613,195.988906 1036.72863,195.988906 C1035.28713,195.988906 1034.26413,194.872906 1034.26413,193.477906 C1034.26413,192.036406 1035.33363,190.920406 1036.82163,190.920406 Z M1063.80513,211.798906 L1047.99513,211.798906 C1048.08813,217.332406 1051.62213,219.610906 1055.71413,219.610906 C1058.64363,219.610906 1060.41063,219.099406 1061.94513,218.448406 L1062.64263,221.377906 C1061.20113,222.028906 1058.73663,222.772906 1055.15613,222.772906 C1048.22763,222.772906 1044.08913,218.215906 1044.08913,211.426906 C1044.08913,204.637906 1048.08813,199.290406 1054.64463,199.290406 C1061.99163,199.290406 1063.94463,205.753906 1063.94463,209.892406 C1063.94463,210.729406 1063.85163,211.380406 1063.80513,211.798906 Z M1048.04163,208.869406 L1059.99213,208.869406 C1060.03863,206.265406 1058.92263,202.219906 1054.31913,202.219906 C1050.18063,202.219906 1048.36713,206.032906 1048.04163,208.869406 Z M1067.49213,221.238406 L1068.51513,218.122906 C1069.72413,218.913406 1071.86313,219.750406 1073.90913,219.750406 C1076.88513,219.750406 1078.28013,218.262406 1078.28013,216.402406 C1078.28013,214.449406 1077.11763,213.379906 1074.09513,212.263906 C1070.04963,210.822406 1068.14313,208.590406 1068.14313,205.893406 C1068.14313,202.266406 1071.07263,199.290406 1075.90863,199.290406 C1078.18713,199.290406 1080.18663,199.941406 1081.44213,200.685406 L1080.41913,203.661406 C1079.53563,203.103406 1077.90813,202.359406 1075.81563,202.359406 C1073.39763,202.359406 1072.04913,203.754406 1072.04913,205.428406 C1072.04913,207.288406 1073.39763,208.125406 1076.32713,209.241406 C1080.23313,210.729406 1082.23263,212.682406 1082.23263,216.030406 C1082.23263,219.982906 1079.16363,222.772906 1073.81613,222.772906 C1071.35163,222.772906 1069.07313,222.168406 1067.49213,221.238406 Z" id="ThemagazineoftheInstituteandFacultyofActuaries" fill="#1D1D1B" fill-rule="nonzero"></path>
            <path d="M400.4256,113.5287 C401.6016,107.3547 402.1896,101.4747 402.1896,95.8887 C402.1896,60.6087 383.0796,35.0307 343.6836,35.0307 C301.6416,35.0307 276.0636,61.4907 276.0636,108.5307 C276.0636,152.0427 303.6996,177.6207 343.3896,177.6207 C370.1436,177.6207 395.1336,167.6247 402.7776,140.2827 L365.7336,127.0527 C361.3236,140.8707 353.0916,144.1047 343.9776,144.1047 C327.5136,144.1047 318.6936,132.3447 318.1056,113.5287 L400.4256,113.5287 Z M360.7356,86.4807 C360.7356,87.9507 360.7356,89.1267 360.4416,90.5967 L319.2816,90.5967 C320.4576,77.3667 328.9836,67.0767 342.2136,67.0767 C354.8556,67.0767 360.7356,75.3087 360.7356,86.4807 L360.7356,86.4807 Z M225.2016,174.0927 L268.7136,174.0927 L268.7136,78.2487 C268.7136,47.3787 249.6036,35.0307 229.3176,35.0307 C208.4436,35.0307 193.7436,43.8507 186.3936,64.1367 L186.3936,0.7737 L142.8816,0.7737 L142.8816,174.0927 L186.3936,174.0927 L186.3936,100.2987 C186.3936,77.6607 197.5656,71.4867 208.7376,71.4867 C222.2616,71.4867 225.2016,80.8947 225.2016,95.3007 L225.2016,174.0927 Z M89.9646,39.1467 L137.0046,39.1467 L137.0046,0.9267 L0.0006,0.9267 L0.0006,39.1467 L46.1586,39.1467 L46.1586,174.0927 L89.9646,174.0927 L89.9646,39.1467 Z" id="Fill-3" fill="#1D1D1B"></path>
        </g>
    </g>
</svg>